<svg version="1.1" id="Layer_1" xmlns="http://www.w3.org/2000/svg" xmlns:xlink="http://www.w3.org/1999/xlink" x="0px" y="0px"
	 width="100%" viewBox="0 0 1441 162" enable-background="new 0 0 1441 162" xml:space="preserve">
<path fill="#00FF94" opacity="1.000000" stroke="none" 
	d="
M1194.468628,163.000000 
	C1194.000000,154.866745 1194.000000,146.733505 1194.000000,138.150665 
	C1139.332642,138.150665 1084.970459,138.150665 1030.123291,138.150665 
	C1030.123291,122.986801 1030.123291,108.264641 1030.123291,93.108047 
	C961.285339,93.108047 892.931580,93.108047 824.000000,93.108047 
	C824.000000,62.426952 824.000000,32.182133 824.000000,1.468657 
	C1028.687622,1.000000 1233.375122,1.000000 1438.531372,1.468657 
	C1438.999878,47.236000 1438.999756,92.534691 1438.535889,137.905182 
	C1391.486206,137.976974 1344.900391,137.976974 1298.000000,137.976974 
	C1298.000000,146.727539 1298.000000,154.863770 1298.000000,163.000000 
	C1263.645752,163.000000 1229.291504,163.000000 1194.468628,163.000000 
z"/>
<path fill="#00FF94" opacity="1.000000" stroke="none" 
	d="
M103.531342,1.000000 
	C104.000000,31.463972 104.000000,61.927944 104.000000,93.000000 
	C69.780083,93.000000 35.858696,93.000000 1.468657,93.000000 
	C1.000000,62.402283 1.000000,31.804562 1.000000,1.000000 
	C35.020615,1.000000 69.041649,1.000000 103.531342,1.000000 
z"/>
<path fill="#00FF94" opacity="1.000000" stroke="none" 
	d="
M621.531372,1.000000 
	C622.000000,31.456751 622.000000,61.913502 622.000000,92.684708 
	C587.677795,92.684708 553.634460,92.684708 519.000000,92.684708 
	C519.000000,62.434212 519.000000,32.185764 519.000000,1.468657 
	C553.020874,1.000000 587.041809,1.000000 621.531372,1.000000 
z"/>
<path fill="#00FF94" opacity="1.000000" stroke="none" 
	d="
M1441.011475,137.833344 
	C1440.562744,137.880127 1440.114014,137.926910 1439.332520,137.903534 
	C1438.999756,92.534691 1438.999878,47.236000 1439.000000,1.468657 
	C1439.996826,1.000000 1440.993652,1.000000 1441.995239,1.000000 
	C1442.000000,46.020893 1442.000000,91.041786 1441.820801,136.652466 
	C1441.410400,137.416885 1441.200439,137.613922 1441.011475,137.833344 
z"/>
<path fill="#00FF94" opacity="1.000000" stroke="none" 
	d="
M1441.253540,137.905212 
	C1441.200439,137.613922 1441.410400,137.416885 1441.820801,137.121124 
	C1442.000000,137.000000 1442.000000,137.500000 1442.000000,137.750000 
	C1441.831909,137.992340 1441.663696,137.984695 1441.253540,137.905212 
z"/>
</svg>