  <svg
                width="203"
                height="34"
                viewBox="0 0 203 34"
                fill="none"
                xmlns="http://www.w3.org/2000/svg"
              >
                <path
                  fill-rule="evenodd"
                  clip-rule="evenodd"
                  d="M134.581 13.1143H132.639V16.0286H134.581C135.346 16.0286 135.967 16.6628 135.967 17.4452V27.7262C135.967 28.2419 135.697 28.6932 135.294 28.941C135.052 29.3529 134.61 29.6285 134.105 29.6285H118.813C118.047 29.6285 117.426 28.9943 117.426 28.2119V27.2572L117.426 27.2404V16.571L117.426 16.5548V12.1024L117.426 12.086V1.41666C117.426 0.634262 118.047 0 118.813 0H134.581C135.346 0 135.967 0.634263 135.967 1.41667V11.6976C135.967 12.48 135.346 13.1143 134.581 13.1143ZM128.836 7.28571H124.557V10.6857H128.836V7.28571ZM128.836 22.3428V17.9714H124.557V22.3428H128.836Z"
                  fill="#4B484F"
                />
                <path
                  fill-rule="evenodd"
                  clip-rule="evenodd"
                  d="M17.5902 1.90241C17.5902 1.12001 16.9693 0.485743 16.2035 0.485743H1.38661C0.620807 0.485743 0 1.12 0 1.90241V27.2405C0 28.0229 0.620809 28.6571 1.38661 28.6571H16.2035C16.9693 28.6571 17.5902 28.0229 17.5902 27.2405V1.90241ZM10.459 9.18813C10.459 8.40573 9.83821 7.77147 9.0724 7.77147H8.51776C7.75195 7.77147 7.13115 8.40573 7.13115 9.18813V19.9548C7.13115 20.7372 7.75195 21.3715 8.51776 21.3715H9.0724C9.83821 21.3715 10.459 20.7372 10.459 19.9548V9.18813Z"
                  fill="#4B484F"
                />
                <path
                  d="M22.3442 4.3309C22.3442 3.5485 22.965 2.91424 23.7308 2.91424H39.0231C39.7889 2.91424 40.4097 3.5485 40.4097 4.3309V14.1261C40.4097 14.9085 39.7889 15.5428 39.0231 15.5428H34.1898C33.424 15.5428 32.8032 14.9085 32.8032 14.1261V10.1999H29.9507V27.2404C29.9507 28.0228 29.3299 28.6571 28.5641 28.6571H23.7308C22.965 28.6571 22.3442 28.0228 22.3442 27.2404V4.3309Z"
                  fill="#4B484F"
                />
                <path
                  fill-rule="evenodd"
                  clip-rule="evenodd"
                  d="M67.9836 26.7143V23.7999H62.8014L62.7936 23.8H58.4357C58.34 23.8 58.2466 23.79 58.1564 23.7712C57.5245 23.6391 57.0491 23.0679 57.0491 22.3833V6.75951C57.0491 6.18411 57.3849 5.68887 57.8671 5.46707C57.9587 5.42496 58.0555 5.3927 58.1563 5.37163C58.2466 5.35277 58.34 5.34284 58.4357 5.34284H68.0232C68.2677 5.34284 68.4973 5.40746 68.6967 5.52088C68.8961 5.40746 69.1258 5.34284 69.3702 5.34284H73.7281C74.4939 5.34284 75.1147 5.97711 75.1147 6.75951V32.5833C75.1147 33.3657 74.4939 34 73.7281 34H69.3702C69.1258 34 68.8962 33.9353 68.6968 33.8219C68.4973 33.9354 68.2677 34 68.0232 34H58.4358C57.67 34 57.0492 33.3657 57.0492 32.5833V28.131C57.0492 27.3486 57.67 26.7143 58.4358 26.7143H67.9836ZM67.9836 12.6286H64.1802V16.5142H67.9836V12.6286Z"
                  fill="#4B484F"
                />
                <path
                  d="M109.344 4.3309C109.344 3.5485 108.723 2.91424 107.958 2.91424L93.1407 2.91424C93.0449 2.91424 92.9515 2.92415 92.8612 2.94302C92.2294 3.07511 91.7541 3.64622 91.7541 4.33076C91.7541 4.33081 91.7541 4.33071 91.7541 4.33076L91.754 27.2404C91.754 28.0228 92.3748 28.6571 93.1406 28.6571H97.4986C98.2644 28.6571 98.8852 28.0228 98.8852 27.2404V10.1999H102.213V27.2404C102.213 28.0228 102.834 28.6571 103.6 28.6571H107.958C108.723 28.6571 109.344 28.0228 109.344 27.2404V4.3309Z"
                  fill="#4B484F"
                />
                <path
                  d="M150.229 23.3143V26.7143H141.632C140.867 26.7143 140.246 27.3486 140.246 28.131V32.5833C140.246 33.3657 140.867 34 141.632 34H155.974C156.74 34 157.36 33.3657 157.36 32.5833V6.75951C157.36 5.97711 156.74 5.34284 155.974 5.34284H151.616C150.85 5.34284 150.229 5.97711 150.229 6.75951V16.0286H147.377V6.75951C147.377 5.97711 146.756 5.34284 145.99 5.34284H141.632C140.867 5.34284 140.246 5.97711 140.246 6.75951V17.4355L140.246 17.4452V21.8976C140.246 22.68 140.867 23.3143 141.632 23.3143H150.229Z"
                  fill="#4B484F"
                />
                <path
                  d="M170.197 5.34284H178.794C179.559 5.34284 180.18 5.97711 180.18 6.75951V11.2119C180.18 11.9943 179.559 12.6286 178.794 12.6286L170.197 12.6286V21.3714H173.049V17.4452C173.049 16.6628 173.67 16.0286 174.436 16.0286H178.794C179.559 16.0286 180.18 16.6628 180.18 17.4452V27.2405C180.18 28.0227 179.559 28.6571 178.794 28.6571L174.436 28.6571L174.431 28.6571H168.818L168.81 28.6571L164.452 28.6571C163.782 28.6571 163.223 28.1715 163.094 27.526C163.075 27.4337 163.066 27.3383 163.066 27.2405L163.065 1.90241C163.065 1.12 163.686 0.485743 164.452 0.485743L168.81 0.485743C169.576 0.485743 170.197 1.12001 170.197 1.90241V5.34284Z"
                  fill="#4B484F"
                />
                <path
                  fill-rule="evenodd"
                  clip-rule="evenodd"
                  d="M201.613 21.3714C202.379 21.3714 203 22.0057 203 22.7881V27.2405C203 28.0229 202.379 28.6571 201.613 28.6571H186.321C186.273 28.6571 186.226 28.6546 186.179 28.6498C185.48 28.5773 184.934 27.974 184.934 27.2405V1.41667C184.934 1.0822 185.048 0.77481 185.238 0.532464C185.492 0.207896 185.883 0 186.321 0H201.613C202.379 0 203 0.634263 203 1.41667V17.0405C203 17.8229 202.379 18.4571 201.613 18.4571H192.066V21.3714H201.613ZM192.066 7.28571H195.869V11.1714H192.066V7.28571Z"
                  fill="#4B484F"
                />
                <path
                  d="M52.2951 1.41667C52.2951 0.634263 51.6743 0 50.9085 0H46.5506C45.7848 0 45.164 0.634264 45.164 1.41667V5.86904C45.164 6.65144 45.7848 7.28571 46.5506 7.28571H50.9085C51.6743 7.28571 52.2951 6.65144 52.2951 5.86904V1.41667Z"
                  fill="#4B484F"
                />
                <path
                  d="M85.6133 0C86.3791 0 86.9999 0.634263 86.9999 1.41667V5.86904C86.9999 6.65144 86.3791 7.28571 85.6133 7.28571H81.2554C80.4896 7.28571 79.8688 6.65144 79.8688 5.86904V1.41667C79.8688 0.634264 80.4896 0 81.2554 0H85.6133Z"
                  fill="#4B484F"
                />
                <path
                  d="M52.2951 12.1024C52.2951 11.32 51.6743 10.6857 50.9085 10.6857H46.5506C45.7848 10.6857 45.164 11.32 45.164 12.1024V27.2405C45.164 28.0229 45.7848 28.6571 46.5506 28.6571H50.9085C51.6743 28.6571 52.2951 28.0229 52.2951 27.2405V12.1024Z"
                  fill="#4B484F"
                />
                <path
                  d="M85.6133 10.6857C86.3791 10.6857 86.9999 11.32 86.9999 12.1024V27.2405C86.9999 28.0229 86.3791 28.6571 85.6133 28.6571H81.2554C80.4896 28.6571 79.8688 28.0229 79.8688 27.2405V12.1024C79.8688 11.32 80.4896 10.6857 81.2554 10.6857H85.6133Z"
                  fill="#4B484F"
                />
              </svg>